<mxfile host="Electron" agent="Mozilla/5.0 (Windows NT 10.0; Win64; x64) AppleWebKit/537.36 (KHTML, like Gecko) draw.io/26.1.1 Chrome/132.0.6834.210 Electron/34.3.3 Safari/537.36" version="26.1.1">
  <diagram id="jLisrdCXhBVGwgeWhrOW" name="페이지-1">
    <mxGraphModel dx="989" dy="2231" grid="1" gridSize="10" guides="1" tooltips="1" connect="1" arrows="1" fold="1" page="1" pageScale="1" pageWidth="1169" pageHeight="827" math="0" shadow="0" adaptiveColors="auto">
      <root>
        <mxCell id="0" />
        <mxCell id="1" parent="0" />
        <mxCell id="8KX8FrIU2miRSpjHxw3c-272" value="" style="rounded=0;whiteSpace=wrap;html=1;fillColor=#f5f5f5;strokeColor=#666666;fontColor=#333333;" vertex="1" parent="1">
          <mxGeometry x="120" y="-1634" width="470" height="600" as="geometry" />
        </mxCell>
        <mxCell id="9" value="" style="rounded=0;whiteSpace=wrap;html=1;fillColor=#b1ddf0;strokeColor=#10739e;" parent="1" vertex="1">
          <mxGeometry x="160" y="-1594" width="370" height="450" as="geometry" />
        </mxCell>
        <mxCell id="8KX8FrIU2miRSpjHxw3c-58" value="" style="edgeStyle=orthogonalEdgeStyle;rounded=0;orthogonalLoop=1;jettySize=auto;html=1;" edge="1" parent="1" source="8KX8FrIU2miRSpjHxw3c-52" target="8KX8FrIU2miRSpjHxw3c-57">
          <mxGeometry relative="1" as="geometry" />
        </mxCell>
        <mxCell id="8KX8FrIU2miRSpjHxw3c-60" value="&amp;nbsp;" style="text;html=1;align=center;verticalAlign=middle;whiteSpace=wrap;rounded=0;" vertex="1" parent="1">
          <mxGeometry x="120" y="-1554" width="60" height="30" as="geometry" />
        </mxCell>
        <mxCell id="8KX8FrIU2miRSpjHxw3c-73" value="&amp;nbsp;" style="text;html=1;align=center;verticalAlign=middle;whiteSpace=wrap;rounded=0;" vertex="1" parent="1">
          <mxGeometry x="120" y="-1554" width="60" height="30" as="geometry" />
        </mxCell>
        <mxCell id="8KX8FrIU2miRSpjHxw3c-76" value="&amp;nbsp;" style="text;html=1;align=center;verticalAlign=middle;whiteSpace=wrap;rounded=0;" vertex="1" parent="1">
          <mxGeometry x="120" y="-1554" width="60" height="30" as="geometry" />
        </mxCell>
        <mxCell id="8KX8FrIU2miRSpjHxw3c-80" value="&amp;nbsp;" style="text;html=1;align=center;verticalAlign=middle;whiteSpace=wrap;rounded=0;" vertex="1" parent="1">
          <mxGeometry x="100" y="-1554" width="60" height="30" as="geometry" />
        </mxCell>
        <mxCell id="8KX8FrIU2miRSpjHxw3c-169" value="" style="edgeStyle=orthogonalEdgeStyle;rounded=0;orthogonalLoop=1;jettySize=auto;html=1;" edge="1" source="8KX8FrIU2miRSpjHxw3c-170" target="8KX8FrIU2miRSpjHxw3c-171" parent="1">
          <mxGeometry relative="1" as="geometry" />
        </mxCell>
        <mxCell id="8KX8FrIU2miRSpjHxw3c-183" value="" style="edgeStyle=orthogonalEdgeStyle;rounded=0;orthogonalLoop=1;jettySize=auto;html=1;" edge="1" source="8KX8FrIU2miRSpjHxw3c-184" target="8KX8FrIU2miRSpjHxw3c-185" parent="1">
          <mxGeometry relative="1" as="geometry" />
        </mxCell>
        <mxCell id="8KX8FrIU2miRSpjHxw3c-229" value="" style="edgeStyle=orthogonalEdgeStyle;rounded=0;orthogonalLoop=1;jettySize=auto;html=1;" edge="1" parent="1" source="8KX8FrIU2miRSpjHxw3c-228" target="8KX8FrIU2miRSpjHxw3c-227">
          <mxGeometry relative="1" as="geometry">
            <Array as="points">
              <mxPoint x="334" y="-1489" />
            </Array>
          </mxGeometry>
        </mxCell>
        <mxCell id="8KX8FrIU2miRSpjHxw3c-197" value="" style="edgeStyle=orthogonalEdgeStyle;rounded=0;orthogonalLoop=1;jettySize=auto;html=1;" edge="1" source="8KX8FrIU2miRSpjHxw3c-198" target="8KX8FrIU2miRSpjHxw3c-199" parent="1">
          <mxGeometry relative="1" as="geometry" />
        </mxCell>
        <mxCell id="10" value="DP" style="rounded=0;whiteSpace=wrap;html=1;fontSize=16;fillColor=#dae8fc;strokeColor=#6c8ebf;" parent="1" vertex="1">
          <mxGeometry x="160" y="-1614" width="50" height="20" as="geometry" />
        </mxCell>
        <mxCell id="15" value="" style="rounded=0;whiteSpace=wrap;html=1;fillColor=#f8cecc;strokeColor=#b85450;" parent="1" vertex="1">
          <mxGeometry x="230" y="-1584" width="70" height="130" as="geometry" />
        </mxCell>
        <mxCell id="36" value="" style="edgeStyle=orthogonalEdgeStyle;html=1;rounded=0;curved=0;" parent="1" source="28" target="35" edge="1">
          <mxGeometry relative="1" as="geometry" />
        </mxCell>
        <mxCell id="28" value="RD1" style="text;html=1;align=center;verticalAlign=middle;whiteSpace=wrap;rounded=0;" parent="1" vertex="1">
          <mxGeometry x="270" y="-1574" width="30" height="10" as="geometry" />
        </mxCell>
        <mxCell id="39" value="" style="edgeStyle=orthogonalEdgeStyle;html=1;rounded=0;curved=0;" parent="1" source="37" target="38" edge="1">
          <mxGeometry relative="1" as="geometry" />
        </mxCell>
        <mxCell id="37" value="RD2" style="text;html=1;align=center;verticalAlign=middle;whiteSpace=wrap;rounded=0;" parent="1" vertex="1">
          <mxGeometry x="270" y="-1554" width="30" height="20" as="geometry" />
        </mxCell>
        <mxCell id="8KX8FrIU2miRSpjHxw3c-51" style="edgeStyle=orthogonalEdgeStyle;rounded=0;orthogonalLoop=1;jettySize=auto;html=1;entryX=0;entryY=0.5;entryDx=0;entryDy=0;" edge="1" parent="1" source="8KX8FrIU2miRSpjHxw3c-40" target="8KX8FrIU2miRSpjHxw3c-50">
          <mxGeometry relative="1" as="geometry" />
        </mxCell>
        <mxCell id="8KX8FrIU2miRSpjHxw3c-46" value="" style="edgeStyle=orthogonalEdgeStyle;rounded=0;orthogonalLoop=1;jettySize=auto;html=1;entryX=0;entryY=0.5;entryDx=0;entryDy=0;" edge="1" parent="1" source="8KX8FrIU2miRSpjHxw3c-44" target="8KX8FrIU2miRSpjHxw3c-45">
          <mxGeometry relative="1" as="geometry">
            <Array as="points">
              <mxPoint x="310" y="-1404" />
              <mxPoint x="310" y="-1524" />
            </Array>
          </mxGeometry>
        </mxCell>
        <mxCell id="8KX8FrIU2miRSpjHxw3c-57" value="&amp;nbsp;" style="text;html=1;align=center;verticalAlign=middle;whiteSpace=wrap;rounded=0;" vertex="1" parent="1">
          <mxGeometry x="160" y="-1549" width="20" height="20" as="geometry" />
        </mxCell>
        <mxCell id="8KX8FrIU2miRSpjHxw3c-65" value="" style="edgeStyle=orthogonalEdgeStyle;rounded=0;orthogonalLoop=1;jettySize=auto;html=1;" edge="1" parent="1" source="8KX8FrIU2miRSpjHxw3c-60" target="8KX8FrIU2miRSpjHxw3c-64">
          <mxGeometry relative="1" as="geometry">
            <Array as="points">
              <mxPoint x="200" y="-1539" />
              <mxPoint x="200" y="-1569" />
            </Array>
          </mxGeometry>
        </mxCell>
        <mxCell id="8KX8FrIU2miRSpjHxw3c-64" value="RA1" style="text;html=1;align=center;verticalAlign=middle;whiteSpace=wrap;rounded=0;" vertex="1" parent="1">
          <mxGeometry x="230" y="-1584" width="30" height="30" as="geometry" />
        </mxCell>
        <mxCell id="8KX8FrIU2miRSpjHxw3c-72" value="" style="edgeStyle=orthogonalEdgeStyle;rounded=0;orthogonalLoop=1;jettySize=auto;html=1;" edge="1" source="8KX8FrIU2miRSpjHxw3c-73" target="8KX8FrIU2miRSpjHxw3c-74" parent="1">
          <mxGeometry relative="1" as="geometry" />
        </mxCell>
        <mxCell id="8KX8FrIU2miRSpjHxw3c-74" value="RA2" style="text;html=1;align=center;verticalAlign=middle;whiteSpace=wrap;rounded=0;" vertex="1" parent="1">
          <mxGeometry x="230" y="-1544" width="30" height="10" as="geometry" />
        </mxCell>
        <mxCell id="8KX8FrIU2miRSpjHxw3c-75" value="" style="edgeStyle=orthogonalEdgeStyle;rounded=0;orthogonalLoop=1;jettySize=auto;html=1;" edge="1" source="8KX8FrIU2miRSpjHxw3c-76" target="8KX8FrIU2miRSpjHxw3c-77" parent="1">
          <mxGeometry relative="1" as="geometry">
            <Array as="points">
              <mxPoint x="200" y="-1539" />
              <mxPoint x="200" y="-1509" />
            </Array>
          </mxGeometry>
        </mxCell>
        <mxCell id="8KX8FrIU2miRSpjHxw3c-77" value="WA" style="text;html=1;align=center;verticalAlign=middle;whiteSpace=wrap;rounded=0;" vertex="1" parent="1">
          <mxGeometry x="230" y="-1514" width="30" height="10" as="geometry" />
        </mxCell>
        <mxCell id="8KX8FrIU2miRSpjHxw3c-79" value="" style="edgeStyle=orthogonalEdgeStyle;rounded=0;orthogonalLoop=1;jettySize=auto;html=1;" edge="1" source="8KX8FrIU2miRSpjHxw3c-80" target="8KX8FrIU2miRSpjHxw3c-81" parent="1">
          <mxGeometry relative="1" as="geometry">
            <Array as="points">
              <mxPoint x="200" y="-1539" />
              <mxPoint x="200" y="-1404" />
            </Array>
          </mxGeometry>
        </mxCell>
        <mxCell id="8KX8FrIU2miRSpjHxw3c-82" value="" style="group" vertex="1" connectable="0" parent="1">
          <mxGeometry x="225" y="-1424" width="77.5" height="40" as="geometry" />
        </mxCell>
        <mxCell id="8KX8FrIU2miRSpjHxw3c-42" value="" style="shape=manualInput;whiteSpace=wrap;html=1;size=13;fillColor=#e1d5e7;strokeColor=#9673a6;" vertex="1" parent="8KX8FrIU2miRSpjHxw3c-82">
          <mxGeometry width="75" height="40" as="geometry" />
        </mxCell>
        <mxCell id="8KX8FrIU2miRSpjHxw3c-44" value="immEXT" style="text;html=1;align=center;verticalAlign=middle;whiteSpace=wrap;rounded=0;" vertex="1" parent="8KX8FrIU2miRSpjHxw3c-82">
          <mxGeometry x="17.5" y="15" width="40" height="20" as="geometry" />
        </mxCell>
        <mxCell id="8KX8FrIU2miRSpjHxw3c-81" value="&amp;nbsp;" style="text;html=1;align=center;verticalAlign=middle;whiteSpace=wrap;rounded=0;" vertex="1" parent="8KX8FrIU2miRSpjHxw3c-82">
          <mxGeometry y="10" width="60" height="30" as="geometry" />
        </mxCell>
        <mxCell id="8KX8FrIU2miRSpjHxw3c-119" value="&amp;nbsp;" style="text;html=1;align=center;verticalAlign=middle;whiteSpace=wrap;rounded=0;" vertex="1" parent="8KX8FrIU2miRSpjHxw3c-82">
          <mxGeometry x="17.5" y="10" width="60" height="30" as="geometry" />
        </mxCell>
        <mxCell id="8KX8FrIU2miRSpjHxw3c-195" value="&amp;nbsp;" style="text;html=1;align=center;verticalAlign=middle;whiteSpace=wrap;rounded=0;" vertex="1" parent="8KX8FrIU2miRSpjHxw3c-82">
          <mxGeometry x="65" y="13.5" width="10" height="13" as="geometry" />
        </mxCell>
        <mxCell id="8KX8FrIU2miRSpjHxw3c-93" value="" style="edgeStyle=orthogonalEdgeStyle;rounded=0;orthogonalLoop=1;jettySize=auto;html=1;" edge="1" source="8KX8FrIU2miRSpjHxw3c-94" target="8KX8FrIU2miRSpjHxw3c-95" parent="1">
          <mxGeometry relative="1" as="geometry">
            <Array as="points">
              <mxPoint x="360" y="-1569" />
              <mxPoint x="360" y="-1434" />
              <mxPoint x="420" y="-1434" />
              <mxPoint x="420" y="-1308" />
            </Array>
          </mxGeometry>
        </mxCell>
        <mxCell id="8KX8FrIU2miRSpjHxw3c-94" value="&amp;nbsp;" style="text;html=1;align=center;verticalAlign=middle;whiteSpace=wrap;rounded=0;" vertex="1" parent="1">
          <mxGeometry x="280" y="-1584" width="20" height="30" as="geometry" />
        </mxCell>
        <mxCell id="8KX8FrIU2miRSpjHxw3c-96" value="" style="group" vertex="1" connectable="0" parent="1">
          <mxGeometry x="390" y="-1559" width="30" height="50" as="geometry" />
        </mxCell>
        <mxCell id="8KX8FrIU2miRSpjHxw3c-40" value="" style="shape=trapezoid;perimeter=trapezoidPerimeter;whiteSpace=wrap;html=1;fixedSize=1;rotation=90;size=5;" vertex="1" parent="8KX8FrIU2miRSpjHxw3c-96">
          <mxGeometry x="-10" y="10" width="50" height="30" as="geometry" />
        </mxCell>
        <mxCell id="38" value="0" style="text;html=1;align=center;verticalAlign=middle;whiteSpace=wrap;rounded=0;" parent="8KX8FrIU2miRSpjHxw3c-96" vertex="1">
          <mxGeometry y="10" width="10" height="10" as="geometry" />
        </mxCell>
        <mxCell id="8KX8FrIU2miRSpjHxw3c-45" value="1" style="text;html=1;align=center;verticalAlign=middle;whiteSpace=wrap;rounded=0;" vertex="1" parent="8KX8FrIU2miRSpjHxw3c-96">
          <mxGeometry y="30" width="10" height="10" as="geometry" />
        </mxCell>
        <mxCell id="8KX8FrIU2miRSpjHxw3c-118" value="" style="edgeStyle=orthogonalEdgeStyle;rounded=0;orthogonalLoop=1;jettySize=auto;html=1;entryX=1;entryY=0.5;entryDx=0;entryDy=0;" edge="1" source="8KX8FrIU2miRSpjHxw3c-119" target="8KX8FrIU2miRSpjHxw3c-130" parent="1">
          <mxGeometry relative="1" as="geometry">
            <mxPoint x="325.68000000000006" y="-1350.75" as="targetPoint" />
            <Array as="points">
              <mxPoint x="360" y="-1404" />
              <mxPoint x="360" y="-1350" />
            </Array>
          </mxGeometry>
        </mxCell>
        <mxCell id="8KX8FrIU2miRSpjHxw3c-134" style="edgeStyle=orthogonalEdgeStyle;rounded=0;orthogonalLoop=1;jettySize=auto;html=1;entryX=1;entryY=0.5;entryDx=0;entryDy=0;exitX=0.5;exitY=0;exitDx=0;exitDy=0;" edge="1" parent="1" source="8KX8FrIU2miRSpjHxw3c-108" target="8KX8FrIU2miRSpjHxw3c-131">
          <mxGeometry relative="1" as="geometry">
            <Array as="points">
              <mxPoint x="360" y="-1309" />
              <mxPoint x="360" y="-1327" />
            </Array>
          </mxGeometry>
        </mxCell>
        <mxCell id="8KX8FrIU2miRSpjHxw3c-145" value="" style="group" vertex="1" connectable="0" parent="1">
          <mxGeometry x="300" y="-1364" width="40" height="50" as="geometry" />
        </mxCell>
        <mxCell id="8KX8FrIU2miRSpjHxw3c-124" value="add" style="shape=loopLimit;whiteSpace=wrap;html=1;direction=north;fillColor=#d5e8d4;strokeColor=#82b366;size=20;" vertex="1" parent="8KX8FrIU2miRSpjHxw3c-145">
          <mxGeometry width="40" height="50" as="geometry" />
        </mxCell>
        <mxCell id="8KX8FrIU2miRSpjHxw3c-130" value="&amp;nbsp;" style="text;html=1;align=center;verticalAlign=middle;whiteSpace=wrap;rounded=0;" vertex="1" parent="8KX8FrIU2miRSpjHxw3c-145">
          <mxGeometry x="34" y="9.612307692307695" width="6" height="7.692307692307693" as="geometry" />
        </mxCell>
        <mxCell id="8KX8FrIU2miRSpjHxw3c-131" value="&amp;nbsp;" style="text;html=1;align=center;verticalAlign=middle;whiteSpace=wrap;rounded=0;" vertex="1" parent="8KX8FrIU2miRSpjHxw3c-145">
          <mxGeometry x="34" y="32.68923076923079" width="6" height="7.692307692307693" as="geometry" />
        </mxCell>
        <mxCell id="8KX8FrIU2miRSpjHxw3c-202" value="&amp;nbsp;" style="text;html=1;align=center;verticalAlign=middle;whiteSpace=wrap;rounded=0;" vertex="1" parent="8KX8FrIU2miRSpjHxw3c-145">
          <mxGeometry y="20" width="10" height="10" as="geometry" />
        </mxCell>
        <mxCell id="8KX8FrIU2miRSpjHxw3c-150" value="" style="group" vertex="1" connectable="0" parent="1">
          <mxGeometry x="300" y="-1284" width="200" height="50" as="geometry" />
        </mxCell>
        <mxCell id="8KX8FrIU2miRSpjHxw3c-144" value="add" style="shape=loopLimit;whiteSpace=wrap;html=1;direction=north;fillColor=#d5e8d4;strokeColor=#82b366;size=20;" vertex="1" parent="8KX8FrIU2miRSpjHxw3c-150">
          <mxGeometry width="40" height="50" as="geometry" />
        </mxCell>
        <mxCell id="8KX8FrIU2miRSpjHxw3c-147" value="" style="edgeStyle=orthogonalEdgeStyle;rounded=0;orthogonalLoop=1;jettySize=auto;html=1;" edge="1" source="8KX8FrIU2miRSpjHxw3c-148" target="8KX8FrIU2miRSpjHxw3c-149" parent="8KX8FrIU2miRSpjHxw3c-150">
          <mxGeometry relative="1" as="geometry" />
        </mxCell>
        <mxCell id="8KX8FrIU2miRSpjHxw3c-148" value="4" style="text;html=1;align=center;verticalAlign=middle;whiteSpace=wrap;rounded=0;" vertex="1" parent="8KX8FrIU2miRSpjHxw3c-150">
          <mxGeometry x="60" y="10" width="10" height="10" as="geometry" />
        </mxCell>
        <mxCell id="8KX8FrIU2miRSpjHxw3c-149" value="&amp;nbsp;" style="text;html=1;align=center;verticalAlign=middle;whiteSpace=wrap;rounded=0;" vertex="1" parent="8KX8FrIU2miRSpjHxw3c-150">
          <mxGeometry x="30" y="10" width="10" height="10" as="geometry" />
        </mxCell>
        <mxCell id="8KX8FrIU2miRSpjHxw3c-153" value="&amp;nbsp;" style="text;html=1;align=center;verticalAlign=middle;whiteSpace=wrap;rounded=0;" vertex="1" parent="8KX8FrIU2miRSpjHxw3c-150">
          <mxGeometry x="30" y="30" width="10" height="10" as="geometry" />
        </mxCell>
        <mxCell id="8KX8FrIU2miRSpjHxw3c-208" value="&amp;nbsp;" style="text;html=1;align=center;verticalAlign=middle;whiteSpace=wrap;rounded=0;" vertex="1" parent="8KX8FrIU2miRSpjHxw3c-150">
          <mxGeometry y="10" width="60" height="30" as="geometry" />
        </mxCell>
        <mxCell id="8KX8FrIU2miRSpjHxw3c-151" value="" style="edgeStyle=orthogonalEdgeStyle;rounded=0;orthogonalLoop=1;jettySize=auto;html=1;exitX=0;exitY=0.5;exitDx=0;exitDy=0;" edge="1" source="8KX8FrIU2miRSpjHxw3c-152" target="8KX8FrIU2miRSpjHxw3c-153" parent="1">
          <mxGeometry relative="1" as="geometry">
            <Array as="points">
              <mxPoint x="170" y="-1299" />
              <mxPoint x="170" y="-1209" />
              <mxPoint x="370" y="-1209" />
              <mxPoint x="370" y="-1249" />
            </Array>
          </mxGeometry>
        </mxCell>
        <mxCell id="8KX8FrIU2miRSpjHxw3c-154" value="" style="edgeStyle=orthogonalEdgeStyle;rounded=0;orthogonalLoop=1;jettySize=auto;html=1;entryX=1;entryY=0.5;entryDx=0;entryDy=0;" edge="1" source="8KX8FrIU2miRSpjHxw3c-155" target="8KX8FrIU2miRSpjHxw3c-156" parent="1">
          <mxGeometry relative="1" as="geometry">
            <Array as="points">
              <mxPoint x="420" y="-1209" />
              <mxPoint x="420" y="-1288" />
              <mxPoint x="400" y="-1288" />
            </Array>
          </mxGeometry>
        </mxCell>
        <mxCell id="8KX8FrIU2miRSpjHxw3c-155" value="&amp;nbsp;" style="text;html=1;align=center;verticalAlign=middle;whiteSpace=wrap;rounded=0;" vertex="1" parent="1">
          <mxGeometry x="260" y="-1214" width="10" height="10" as="geometry" />
        </mxCell>
        <mxCell id="8KX8FrIU2miRSpjHxw3c-163" style="edgeStyle=orthogonalEdgeStyle;rounded=0;orthogonalLoop=1;jettySize=auto;html=1;entryX=1;entryY=0.5;entryDx=0;entryDy=0;" edge="1" parent="1" source="8KX8FrIU2miRSpjHxw3c-124" target="8KX8FrIU2miRSpjHxw3c-160">
          <mxGeometry relative="1" as="geometry">
            <Array as="points">
              <mxPoint x="290" y="-1339" />
              <mxPoint x="290" y="-1309" />
            </Array>
          </mxGeometry>
        </mxCell>
        <mxCell id="8KX8FrIU2miRSpjHxw3c-164" style="edgeStyle=orthogonalEdgeStyle;rounded=0;orthogonalLoop=1;jettySize=auto;html=1;entryX=1;entryY=0.5;entryDx=0;entryDy=0;" edge="1" parent="1" source="8KX8FrIU2miRSpjHxw3c-144" target="8KX8FrIU2miRSpjHxw3c-161">
          <mxGeometry relative="1" as="geometry">
            <Array as="points">
              <mxPoint x="290" y="-1259" />
              <mxPoint x="290" y="-1289" />
            </Array>
          </mxGeometry>
        </mxCell>
        <mxCell id="8KX8FrIU2miRSpjHxw3c-166" value="" style="edgeStyle=orthogonalEdgeStyle;rounded=0;orthogonalLoop=1;jettySize=auto;html=1;" edge="1" parent="1" source="8KX8FrIU2miRSpjHxw3c-159" target="8KX8FrIU2miRSpjHxw3c-165">
          <mxGeometry relative="1" as="geometry" />
        </mxCell>
        <mxCell id="8KX8FrIU2miRSpjHxw3c-168" value="" style="triangle;whiteSpace=wrap;html=1;fillColor=#60a917;fontColor=#ffffff;strokeColor=#2D7600;rotation=90;" vertex="1" parent="1">
          <mxGeometry x="235" y="-1584" width="10" height="10" as="geometry" />
        </mxCell>
        <mxCell id="8KX8FrIU2miRSpjHxw3c-186" value="" style="edgeStyle=orthogonalEdgeStyle;rounded=0;orthogonalLoop=1;jettySize=auto;html=1;entryX=1;entryY=0.5;entryDx=0;entryDy=0;" edge="1" source="8KX8FrIU2miRSpjHxw3c-187" target="8KX8FrIU2miRSpjHxw3c-188" parent="1">
          <mxGeometry relative="1" as="geometry">
            <Array as="points">
              <mxPoint x="515" y="-1459" />
            </Array>
          </mxGeometry>
        </mxCell>
        <mxCell id="8KX8FrIU2miRSpjHxw3c-187" value="&amp;nbsp;" style="text;html=1;align=center;verticalAlign=middle;whiteSpace=wrap;rounded=0;" vertex="1" parent="1">
          <mxGeometry x="485" y="-1562" width="60" height="10" as="geometry" />
        </mxCell>
        <mxCell id="8KX8FrIU2miRSpjHxw3c-194" value="" style="edgeStyle=orthogonalEdgeStyle;rounded=0;orthogonalLoop=1;jettySize=auto;html=1;" edge="1" source="8KX8FrIU2miRSpjHxw3c-195" target="8KX8FrIU2miRSpjHxw3c-196" parent="1">
          <mxGeometry relative="1" as="geometry">
            <Array as="points">
              <mxPoint x="440" y="-1404" />
              <mxPoint x="440" y="-1274" />
              <mxPoint x="520" y="-1274" />
              <mxPoint x="520" y="-1421" />
            </Array>
          </mxGeometry>
        </mxCell>
        <mxCell id="8KX8FrIU2miRSpjHxw3c-201" value="" style="edgeStyle=orthogonalEdgeStyle;rounded=0;orthogonalLoop=1;jettySize=auto;html=1;endArrow=none;startFill=0;" edge="1" source="8KX8FrIU2miRSpjHxw3c-202" target="8KX8FrIU2miRSpjHxw3c-203" parent="1">
          <mxGeometry relative="1" as="geometry">
            <Array as="points">
              <mxPoint x="290" y="-1339" />
              <mxPoint x="290" y="-1379" />
            </Array>
          </mxGeometry>
        </mxCell>
        <mxCell id="8KX8FrIU2miRSpjHxw3c-204" value="" style="edgeStyle=orthogonalEdgeStyle;rounded=0;orthogonalLoop=1;jettySize=auto;html=1;" edge="1" source="8KX8FrIU2miRSpjHxw3c-205" target="8KX8FrIU2miRSpjHxw3c-206" parent="1">
          <mxGeometry relative="1" as="geometry">
            <Array as="points">
              <mxPoint x="450" y="-1284" />
              <mxPoint x="510" y="-1284" />
              <mxPoint x="510" y="-1401" />
            </Array>
          </mxGeometry>
        </mxCell>
        <mxCell id="8KX8FrIU2miRSpjHxw3c-205" value="&amp;nbsp;" style="text;html=1;align=center;verticalAlign=middle;whiteSpace=wrap;rounded=0;" vertex="1" parent="1">
          <mxGeometry x="444" y="-1392" width="14" height="13" as="geometry" />
        </mxCell>
        <mxCell id="8KX8FrIU2miRSpjHxw3c-207" value="" style="edgeStyle=orthogonalEdgeStyle;rounded=0;orthogonalLoop=1;jettySize=auto;html=1;" edge="1" source="8KX8FrIU2miRSpjHxw3c-208" target="8KX8FrIU2miRSpjHxw3c-209" parent="1">
          <mxGeometry relative="1" as="geometry">
            <Array as="points">
              <mxPoint x="290" y="-1259" />
              <mxPoint x="290" y="-1224" />
              <mxPoint x="500" y="-1224" />
              <mxPoint x="500" y="-1387" />
            </Array>
          </mxGeometry>
        </mxCell>
        <mxCell id="8KX8FrIU2miRSpjHxw3c-211" value="" style="edgeStyle=orthogonalEdgeStyle;rounded=0;orthogonalLoop=1;jettySize=auto;html=1;" edge="1" source="8KX8FrIU2miRSpjHxw3c-212" target="8KX8FrIU2miRSpjHxw3c-213" parent="1">
          <mxGeometry relative="1" as="geometry">
            <Array as="points">
              <mxPoint x="448" y="-1444" />
              <mxPoint x="210" y="-1444" />
              <mxPoint x="210" y="-1480" />
            </Array>
          </mxGeometry>
        </mxCell>
        <mxCell id="8KX8FrIU2miRSpjHxw3c-213" value="WD" style="text;html=1;align=center;verticalAlign=middle;whiteSpace=wrap;rounded=0;" vertex="1" parent="1">
          <mxGeometry x="230" y="-1484" width="30" height="7.5" as="geometry" />
        </mxCell>
        <mxCell id="8KX8FrIU2miRSpjHxw3c-214" value="" style="group" vertex="1" connectable="0" parent="1">
          <mxGeometry x="455" y="-1474" width="30" height="100" as="geometry" />
        </mxCell>
        <mxCell id="8KX8FrIU2miRSpjHxw3c-191" value="" style="shape=trapezoid;perimeter=trapezoidPerimeter;whiteSpace=wrap;html=1;fixedSize=1;rotation=-90;size=5;" vertex="1" parent="8KX8FrIU2miRSpjHxw3c-214">
          <mxGeometry x="-35" y="35" width="100" height="30" as="geometry" />
        </mxCell>
        <mxCell id="8KX8FrIU2miRSpjHxw3c-188" value="0" style="text;html=1;align=center;verticalAlign=middle;whiteSpace=wrap;rounded=0;" vertex="1" parent="8KX8FrIU2miRSpjHxw3c-214">
          <mxGeometry x="20" y="10" width="10" height="10" as="geometry" />
        </mxCell>
        <mxCell id="8KX8FrIU2miRSpjHxw3c-196" value="2" style="text;html=1;align=center;verticalAlign=middle;whiteSpace=wrap;rounded=0;" vertex="1" parent="8KX8FrIU2miRSpjHxw3c-214">
          <mxGeometry x="20" y="50" width="10" height="7" as="geometry" />
        </mxCell>
        <mxCell id="8KX8FrIU2miRSpjHxw3c-199" value="1" style="text;html=1;align=center;verticalAlign=middle;whiteSpace=wrap;rounded=0;" vertex="1" parent="8KX8FrIU2miRSpjHxw3c-214">
          <mxGeometry x="20" y="30" width="10" height="10" as="geometry" />
        </mxCell>
        <mxCell id="8KX8FrIU2miRSpjHxw3c-206" value="3" style="text;html=1;align=center;verticalAlign=middle;whiteSpace=wrap;rounded=0;" vertex="1" parent="8KX8FrIU2miRSpjHxw3c-214">
          <mxGeometry x="21" y="70" width="8.5" height="6.5" as="geometry" />
        </mxCell>
        <mxCell id="8KX8FrIU2miRSpjHxw3c-209" value="4" style="text;html=1;align=center;verticalAlign=middle;whiteSpace=wrap;rounded=0;" vertex="1" parent="8KX8FrIU2miRSpjHxw3c-214">
          <mxGeometry x="20" y="82" width="10" height="10" as="geometry" />
        </mxCell>
        <mxCell id="8KX8FrIU2miRSpjHxw3c-212" value="&amp;nbsp;" style="text;html=1;align=center;verticalAlign=middle;whiteSpace=wrap;rounded=0;" vertex="1" parent="8KX8FrIU2miRSpjHxw3c-214">
          <mxGeometry y="25" width="5" height="15" as="geometry" />
        </mxCell>
        <mxCell id="8KX8FrIU2miRSpjHxw3c-203" value="&amp;nbsp;" style="text;html=1;align=center;verticalAlign=middle;whiteSpace=wrap;rounded=0;" vertex="1" parent="8KX8FrIU2miRSpjHxw3c-214">
          <mxGeometry x="-4.5" y="90" width="10" height="10" as="geometry" />
        </mxCell>
        <mxCell id="8KX8FrIU2miRSpjHxw3c-215" value="" style="shape=waypoint;sketch=0;fillStyle=solid;size=6;pointerEvents=1;points=[];fillColor=none;resizable=0;rotatable=0;perimeter=centerPerimeter;snapToPoint=1;" vertex="1" parent="1">
          <mxGeometry x="350" y="-1579" width="20" height="20" as="geometry" />
        </mxCell>
        <mxCell id="8KX8FrIU2miRSpjHxw3c-217" value="" style="shape=waypoint;sketch=0;fillStyle=solid;size=6;pointerEvents=1;points=[];fillColor=none;resizable=0;rotatable=0;perimeter=centerPerimeter;snapToPoint=1;" vertex="1" parent="1">
          <mxGeometry x="350" y="-1414" width="20" height="20" as="geometry" />
        </mxCell>
        <mxCell id="8KX8FrIU2miRSpjHxw3c-218" value="" style="shape=waypoint;sketch=0;fillStyle=solid;size=6;pointerEvents=1;points=[];fillColor=none;resizable=0;rotatable=0;perimeter=centerPerimeter;snapToPoint=1;" vertex="1" parent="1">
          <mxGeometry x="190" y="-1549" width="20" height="20" as="geometry" />
        </mxCell>
        <mxCell id="8KX8FrIU2miRSpjHxw3c-220" value="" style="shape=waypoint;sketch=0;fillStyle=solid;size=6;pointerEvents=1;points=[];fillColor=none;resizable=0;rotatable=0;perimeter=centerPerimeter;snapToPoint=1;" vertex="1" parent="1">
          <mxGeometry x="280" y="-1349" width="20" height="20" as="geometry" />
        </mxCell>
        <mxCell id="8KX8FrIU2miRSpjHxw3c-221" value="" style="shape=waypoint;sketch=0;fillStyle=solid;size=6;pointerEvents=1;points=[];fillColor=none;resizable=0;rotatable=0;perimeter=centerPerimeter;snapToPoint=1;" vertex="1" parent="1">
          <mxGeometry x="280" y="-1269" width="20" height="20" as="geometry" />
        </mxCell>
        <mxCell id="8KX8FrIU2miRSpjHxw3c-222" value="" style="shape=waypoint;sketch=0;fillStyle=solid;size=6;pointerEvents=1;points=[];fillColor=none;resizable=0;rotatable=0;perimeter=centerPerimeter;snapToPoint=1;" vertex="1" parent="1">
          <mxGeometry x="300" y="-1414" width="20" height="20" as="geometry" />
        </mxCell>
        <mxCell id="8KX8FrIU2miRSpjHxw3c-223" value="" style="shape=waypoint;sketch=0;fillStyle=solid;size=6;pointerEvents=1;points=[];fillColor=none;resizable=0;rotatable=0;perimeter=centerPerimeter;snapToPoint=1;" vertex="1" parent="1">
          <mxGeometry x="505" y="-1562" width="20" height="20" as="geometry" />
        </mxCell>
        <mxCell id="8KX8FrIU2miRSpjHxw3c-224" value="" style="shape=waypoint;sketch=0;fillStyle=solid;size=6;pointerEvents=1;points=[];fillColor=none;resizable=0;rotatable=0;perimeter=centerPerimeter;snapToPoint=1;" vertex="1" parent="1">
          <mxGeometry x="360" y="-1219" width="20" height="20" as="geometry" />
        </mxCell>
        <mxCell id="8KX8FrIU2miRSpjHxw3c-226" value="" style="shape=waypoint;sketch=0;fillStyle=solid;size=6;pointerEvents=1;points=[];fillColor=none;resizable=0;rotatable=0;perimeter=centerPerimeter;snapToPoint=1;" vertex="1" parent="1">
          <mxGeometry x="160" y="-1309" width="20" height="20" as="geometry" />
        </mxCell>
        <mxCell id="8KX8FrIU2miRSpjHxw3c-228" value="" style="shape=waypoint;sketch=0;fillStyle=solid;size=6;pointerEvents=1;points=[];fillColor=none;resizable=0;rotatable=0;perimeter=centerPerimeter;snapToPoint=1;" vertex="1" parent="1">
          <mxGeometry x="324" y="-1554" width="20" height="20" as="geometry" />
        </mxCell>
        <mxCell id="21" value="ALU" style="shape=loopLimit;whiteSpace=wrap;html=1;direction=south;fillColor=#d5e8d4;strokeColor=#82b366;" parent="1" vertex="1">
          <mxGeometry x="440" y="-1584" width="50" height="65" as="geometry" />
        </mxCell>
        <mxCell id="35" value="&amp;nbsp;" style="text;html=1;align=center;verticalAlign=middle;whiteSpace=wrap;rounded=0;" parent="1" vertex="1">
          <mxGeometry x="440" y="-1574" width="30" height="10" as="geometry" />
        </mxCell>
        <mxCell id="8KX8FrIU2miRSpjHxw3c-50" value="&amp;nbsp;" style="text;html=1;align=center;verticalAlign=middle;whiteSpace=wrap;rounded=0;" vertex="1" parent="1">
          <mxGeometry x="440" y="-1544" width="20" height="20" as="geometry" />
        </mxCell>
        <mxCell id="8KX8FrIU2miRSpjHxw3c-184" value="&amp;nbsp;" style="text;html=1;align=center;verticalAlign=middle;whiteSpace=wrap;rounded=0;" vertex="1" parent="1">
          <mxGeometry x="470" y="-1556.5" width="20" height="10" as="geometry" />
        </mxCell>
        <mxCell id="8KX8FrIU2miRSpjHxw3c-240" value="" style="edgeStyle=orthogonalEdgeStyle;rounded=0;orthogonalLoop=1;jettySize=auto;html=1;entryX=0.175;entryY=0.75;entryDx=0;entryDy=0;entryPerimeter=0;" edge="1" parent="1" source="8KX8FrIU2miRSpjHxw3c-237" target="8KX8FrIU2miRSpjHxw3c-239">
          <mxGeometry relative="1" as="geometry" />
        </mxCell>
        <mxCell id="8KX8FrIU2miRSpjHxw3c-237" value="" style="shape=delay;whiteSpace=wrap;html=1;direction=west;fillColor=#ffe6cc;strokeColor=#d79b00;" vertex="1" parent="1">
          <mxGeometry x="334.5" y="-1201" width="30" height="30" as="geometry" />
        </mxCell>
        <mxCell id="8KX8FrIU2miRSpjHxw3c-239" value="" style="shape=xor;whiteSpace=wrap;html=1;direction=west;fillColor=#ffe6cc;strokeColor=#d79b00;" vertex="1" parent="1">
          <mxGeometry x="270" y="-1179" width="24.5" height="30" as="geometry" />
        </mxCell>
        <mxCell id="8KX8FrIU2miRSpjHxw3c-242" value="" style="edgeStyle=orthogonalEdgeStyle;rounded=0;orthogonalLoop=1;jettySize=auto;html=1;entryX=0.175;entryY=0.25;entryDx=0;entryDy=0;entryPerimeter=0;exitX=0.5;exitY=0;exitDx=0;exitDy=0;" edge="1" parent="1" source="8KX8FrIU2miRSpjHxw3c-241" target="8KX8FrIU2miRSpjHxw3c-239">
          <mxGeometry relative="1" as="geometry">
            <Array as="points">
              <mxPoint x="340" y="-1156" />
            </Array>
          </mxGeometry>
        </mxCell>
        <mxCell id="8KX8FrIU2miRSpjHxw3c-249" style="edgeStyle=orthogonalEdgeStyle;rounded=0;orthogonalLoop=1;jettySize=auto;html=1;entryX=0;entryY=0.75;entryDx=0;entryDy=0;" edge="1" parent="1" source="8KX8FrIU2miRSpjHxw3c-247" target="8KX8FrIU2miRSpjHxw3c-237">
          <mxGeometry relative="1" as="geometry" />
        </mxCell>
        <mxCell id="8KX8FrIU2miRSpjHxw3c-247" value="compR" style="text;html=1;align=center;verticalAlign=middle;whiteSpace=wrap;rounded=0;" vertex="1" parent="1">
          <mxGeometry x="404" y="-1199" width="40" height="10" as="geometry" />
        </mxCell>
        <mxCell id="8KX8FrIU2miRSpjHxw3c-250" value="" style="edgeStyle=orthogonalEdgeStyle;rounded=0;orthogonalLoop=1;jettySize=auto;html=1;" edge="1" source="8KX8FrIU2miRSpjHxw3c-251" target="8KX8FrIU2miRSpjHxw3c-252" parent="1">
          <mxGeometry relative="1" as="geometry">
            <Array as="points">
              <mxPoint x="490" y="-1524" />
              <mxPoint x="490" y="-1524" />
            </Array>
          </mxGeometry>
        </mxCell>
        <mxCell id="8KX8FrIU2miRSpjHxw3c-251" value="&amp;nbsp;" style="text;html=1;align=center;verticalAlign=middle;whiteSpace=wrap;rounded=0;" vertex="1" parent="1">
          <mxGeometry x="455" y="-1534" width="30" height="5" as="geometry" />
        </mxCell>
        <mxCell id="8KX8FrIU2miRSpjHxw3c-252" value="compR" style="text;html=1;align=center;verticalAlign=middle;whiteSpace=wrap;rounded=0;" vertex="1" parent="1">
          <mxGeometry x="470" y="-1514" width="30" height="10" as="geometry" />
        </mxCell>
        <mxCell id="8KX8FrIU2miRSpjHxw3c-253" style="edgeStyle=orthogonalEdgeStyle;rounded=0;orthogonalLoop=1;jettySize=auto;html=1;entryX=0;entryY=0.5;entryDx=0;entryDy=0;" edge="1" parent="1" source="8KX8FrIU2miRSpjHxw3c-239" target="8KX8FrIU2miRSpjHxw3c-159">
          <mxGeometry relative="1" as="geometry">
            <Array as="points">
              <mxPoint x="255" y="-1164" />
            </Array>
          </mxGeometry>
        </mxCell>
        <mxCell id="8KX8FrIU2miRSpjHxw3c-256" style="edgeStyle=orthogonalEdgeStyle;rounded=0;orthogonalLoop=1;jettySize=auto;html=1;entryX=0;entryY=0.5;entryDx=0;entryDy=0;" edge="1" parent="1" source="8KX8FrIU2miRSpjHxw3c-255" target="8KX8FrIU2miRSpjHxw3c-40">
          <mxGeometry relative="1" as="geometry">
            <Array as="points">
              <mxPoint x="560" y="-1624" />
              <mxPoint x="405" y="-1624" />
            </Array>
          </mxGeometry>
        </mxCell>
        <mxCell id="8KX8FrIU2miRSpjHxw3c-258" style="edgeStyle=orthogonalEdgeStyle;rounded=0;orthogonalLoop=1;jettySize=auto;html=1;entryX=0;entryY=0.5;entryDx=0;entryDy=0;" edge="1" parent="1" source="8KX8FrIU2miRSpjHxw3c-257" target="8KX8FrIU2miRSpjHxw3c-191">
          <mxGeometry relative="1" as="geometry">
            <Array as="points">
              <mxPoint x="470" y="-1314" />
              <mxPoint x="470" y="-1314" />
            </Array>
          </mxGeometry>
        </mxCell>
        <mxCell id="8KX8FrIU2miRSpjHxw3c-259" value="PCsel" style="text;html=1;align=center;verticalAlign=middle;whiteSpace=wrap;rounded=0;rotation=-90;" vertex="1" parent="1">
          <mxGeometry x="215" y="-1254" width="60" height="30" as="geometry" />
        </mxCell>
        <mxCell id="8KX8FrIU2miRSpjHxw3c-261" style="edgeStyle=orthogonalEdgeStyle;rounded=0;orthogonalLoop=1;jettySize=auto;html=1;entryX=1;entryY=0.5;entryDx=0;entryDy=0;" edge="1" parent="1" source="8KX8FrIU2miRSpjHxw3c-260" target="8KX8FrIU2miRSpjHxw3c-108">
          <mxGeometry relative="1" as="geometry" />
        </mxCell>
        <mxCell id="8KX8FrIU2miRSpjHxw3c-260" value="JR" style="text;html=1;align=center;verticalAlign=middle;whiteSpace=wrap;rounded=0;" vertex="1" parent="1">
          <mxGeometry x="360" y="-1364" width="50" height="10" as="geometry" />
        </mxCell>
        <mxCell id="8KX8FrIU2miRSpjHxw3c-265" style="edgeStyle=orthogonalEdgeStyle;rounded=0;orthogonalLoop=1;jettySize=auto;html=1;entryX=0.191;entryY=1.002;entryDx=0;entryDy=0;entryPerimeter=0;" edge="1" parent="1" source="8KX8FrIU2miRSpjHxw3c-264" target="9">
          <mxGeometry relative="1" as="geometry" />
        </mxCell>
        <mxCell id="8KX8FrIU2miRSpjHxw3c-267" value="CU" style="rounded=0;whiteSpace=wrap;html=1;fontSize=16;fillColor=#dae8fc;strokeColor=#6c8ebf;" vertex="1" parent="1">
          <mxGeometry x="160" y="-1064" width="50" height="20" as="geometry" />
        </mxCell>
        <mxCell id="8KX8FrIU2miRSpjHxw3c-270" value="" style="edgeStyle=orthogonalEdgeStyle;rounded=0;orthogonalLoop=1;jettySize=auto;html=1;" edge="1" parent="1" source="8KX8FrIU2miRSpjHxw3c-268" target="8KX8FrIU2miRSpjHxw3c-269">
          <mxGeometry relative="1" as="geometry">
            <Array as="points">
              <mxPoint x="140" y="-1094" />
            </Array>
          </mxGeometry>
        </mxCell>
        <mxCell id="8KX8FrIU2miRSpjHxw3c-268" value="" style="shape=waypoint;sketch=0;fillStyle=solid;size=6;pointerEvents=1;points=[];fillColor=none;resizable=0;rotatable=0;perimeter=centerPerimeter;snapToPoint=1;" vertex="1" parent="1">
          <mxGeometry x="130" y="-1549" width="20" height="20" as="geometry" />
        </mxCell>
        <mxCell id="8KX8FrIU2miRSpjHxw3c-262" value="" style="rounded=0;whiteSpace=wrap;html=1;fillColor=#b1ddf0;strokeColor=#10739e;" vertex="1" parent="1">
          <mxGeometry x="160" y="-1124" width="420" height="60" as="geometry" />
        </mxCell>
        <mxCell id="8KX8FrIU2miRSpjHxw3c-241" value="jump" style="text;html=1;align=center;verticalAlign=middle;whiteSpace=wrap;rounded=0;" vertex="1" parent="1">
          <mxGeometry x="330" y="-1124" width="20" height="10" as="geometry" />
        </mxCell>
        <mxCell id="8KX8FrIU2miRSpjHxw3c-257" value="wdsel" style="text;html=1;align=center;verticalAlign=middle;whiteSpace=wrap;rounded=0;" vertex="1" parent="1">
          <mxGeometry x="450" y="-1124" width="40" height="10" as="geometry" />
        </mxCell>
        <mxCell id="8KX8FrIU2miRSpjHxw3c-255" value="alusel" style="text;html=1;align=center;verticalAlign=middle;whiteSpace=wrap;rounded=0;" vertex="1" parent="1">
          <mxGeometry x="535" y="-1124" width="45" height="10" as="geometry" />
        </mxCell>
        <mxCell id="8KX8FrIU2miRSpjHxw3c-264" value="JR" style="text;html=1;align=center;verticalAlign=middle;whiteSpace=wrap;rounded=0;" vertex="1" parent="1">
          <mxGeometry x="220" y="-1124" width="20" height="10" as="geometry" />
        </mxCell>
        <mxCell id="8KX8FrIU2miRSpjHxw3c-269" value="instructionCode" style="text;html=1;align=center;verticalAlign=middle;whiteSpace=wrap;rounded=0;" vertex="1" parent="1">
          <mxGeometry x="160" y="-1099" width="90" height="10" as="geometry" />
        </mxCell>
        <mxCell id="8KX8FrIU2miRSpjHxw3c-271" style="edgeStyle=orthogonalEdgeStyle;rounded=0;orthogonalLoop=1;jettySize=auto;html=1;entryX=0;entryY=0.25;entryDx=0;entryDy=0;" edge="1" parent="1" source="8KX8FrIU2miRSpjHxw3c-243" target="8KX8FrIU2miRSpjHxw3c-237">
          <mxGeometry relative="1" as="geometry">
            <Array as="points">
              <mxPoint x="430" y="-1179" />
            </Array>
          </mxGeometry>
        </mxCell>
        <mxCell id="8KX8FrIU2miRSpjHxw3c-243" value="branch" style="text;html=1;align=center;verticalAlign=middle;whiteSpace=wrap;rounded=0;" vertex="1" parent="1">
          <mxGeometry x="410" y="-1124" width="40" height="10" as="geometry" />
        </mxCell>
        <mxCell id="8KX8FrIU2miRSpjHxw3c-273" value="CORE" style="rounded=0;whiteSpace=wrap;html=1;fontSize=16;fillColor=#dae8fc;strokeColor=#6c8ebf;" vertex="1" parent="1">
          <mxGeometry x="120" y="-1654" width="50" height="20" as="geometry" />
        </mxCell>
        <mxCell id="3" value="" style="rounded=0;whiteSpace=wrap;html=1;fillColor=#d0cee2;strokeColor=#56517e;" parent="1" vertex="1">
          <mxGeometry y="-1594" width="120" height="410" as="geometry" />
        </mxCell>
        <mxCell id="4" value="ROM" style="rounded=0;whiteSpace=wrap;html=1;fontSize=16;fillColor=#dae8fc;strokeColor=#6c8ebf;" parent="1" vertex="1">
          <mxGeometry y="-1614" width="50" height="20" as="geometry" />
        </mxCell>
        <mxCell id="8KX8FrIU2miRSpjHxw3c-52" value="data" style="text;html=1;align=center;verticalAlign=middle;whiteSpace=wrap;rounded=0;" vertex="1" parent="1">
          <mxGeometry x="90" y="-1549" width="30" height="20" as="geometry" />
        </mxCell>
        <mxCell id="8KX8FrIU2miRSpjHxw3c-171" value="Addr" style="text;html=1;align=center;verticalAlign=middle;whiteSpace=wrap;rounded=0;" vertex="1" parent="1">
          <mxGeometry x="80" y="-1314" width="40" height="30" as="geometry" />
        </mxCell>
        <mxCell id="8KX8FrIU2miRSpjHxw3c-274" value="alusel" style="text;html=1;align=center;verticalAlign=middle;whiteSpace=wrap;rounded=0;" vertex="1" parent="1">
          <mxGeometry x="401.5" y="-1634" width="45" height="10" as="geometry" />
        </mxCell>
        <mxCell id="8KX8FrIU2miRSpjHxw3c-167" value="" style="triangle;whiteSpace=wrap;html=1;fillColor=#60a917;fontColor=#ffffff;strokeColor=#2D7600;" vertex="1" parent="1">
          <mxGeometry x="190" y="-1317.75" width="10" height="10" as="geometry" />
        </mxCell>
        <mxCell id="8KX8FrIU2miRSpjHxw3c-170" value="&amp;nbsp;" style="text;html=1;align=center;verticalAlign=middle;whiteSpace=wrap;rounded=0;" vertex="1" parent="1">
          <mxGeometry x="190" y="-1304" width="10" height="10" as="geometry" />
        </mxCell>
        <mxCell id="8KX8FrIU2miRSpjHxw3c-177" value="" style="group" vertex="1" connectable="0" parent="1">
          <mxGeometry x="190" y="-1317.75" width="25" height="37.5" as="geometry" />
        </mxCell>
        <mxCell id="8KX8FrIU2miRSpjHxw3c-165" value="PC" style="rounded=0;whiteSpace=wrap;html=1;fillColor=#fff2cc;strokeColor=#d6b656;" vertex="1" parent="8KX8FrIU2miRSpjHxw3c-177">
          <mxGeometry width="25" height="37.5" as="geometry" />
        </mxCell>
        <mxCell id="8KX8FrIU2miRSpjHxw3c-174" value="&amp;nbsp;" style="text;html=1;align=center;verticalAlign=middle;whiteSpace=wrap;rounded=0;" vertex="1" parent="8KX8FrIU2miRSpjHxw3c-177">
          <mxGeometry y="15.63" width="10" height="6.25" as="geometry" />
        </mxCell>
        <mxCell id="8KX8FrIU2miRSpjHxw3c-152" value="&amp;nbsp;" style="text;html=1;align=center;verticalAlign=middle;whiteSpace=wrap;rounded=0;" vertex="1" parent="8KX8FrIU2miRSpjHxw3c-177">
          <mxGeometry y="13.75" width="10" height="10" as="geometry" />
        </mxCell>
        <mxCell id="8KX8FrIU2miRSpjHxw3c-278" value="" style="group" vertex="1" connectable="0" parent="1">
          <mxGeometry x="590" y="-1614" width="120" height="430" as="geometry" />
        </mxCell>
        <mxCell id="11" value="" style="rounded=0;whiteSpace=wrap;html=1;fillColor=#d0cee2;strokeColor=#56517e;" parent="8KX8FrIU2miRSpjHxw3c-278" vertex="1">
          <mxGeometry y="20" width="120" height="410" as="geometry" />
        </mxCell>
        <mxCell id="12" value="RAM" style="rounded=0;whiteSpace=wrap;html=1;fontSize=16;fillColor=#dae8fc;strokeColor=#6c8ebf;" parent="8KX8FrIU2miRSpjHxw3c-278" vertex="1">
          <mxGeometry width="50" height="20" as="geometry" />
        </mxCell>
        <mxCell id="8KX8FrIU2miRSpjHxw3c-198" value="RDaTA" style="text;html=1;align=center;verticalAlign=middle;whiteSpace=wrap;rounded=0;" vertex="1" parent="8KX8FrIU2miRSpjHxw3c-278">
          <mxGeometry y="170" width="40" height="10" as="geometry" />
        </mxCell>
        <mxCell id="8KX8FrIU2miRSpjHxw3c-227" value="WData" style="text;html=1;align=center;verticalAlign=middle;whiteSpace=wrap;rounded=0;" vertex="1" parent="8KX8FrIU2miRSpjHxw3c-278">
          <mxGeometry y="120" width="40" height="10" as="geometry" />
        </mxCell>
        <mxCell id="8KX8FrIU2miRSpjHxw3c-185" value="Addr" style="text;html=1;align=center;verticalAlign=middle;whiteSpace=wrap;rounded=0;" vertex="1" parent="8KX8FrIU2miRSpjHxw3c-278">
          <mxGeometry y="56.25" width="30" height="12.5" as="geometry" />
        </mxCell>
        <mxCell id="8KX8FrIU2miRSpjHxw3c-284" value="ramWE" style="text;html=1;align=center;verticalAlign=middle;whiteSpace=wrap;rounded=0;" vertex="1" parent="8KX8FrIU2miRSpjHxw3c-278">
          <mxGeometry x="30" y="420" width="60" height="10" as="geometry" />
        </mxCell>
        <mxCell id="8KX8FrIU2miRSpjHxw3c-281" style="edgeStyle=orthogonalEdgeStyle;rounded=0;orthogonalLoop=1;jettySize=auto;html=1;entryX=0;entryY=0.75;entryDx=0;entryDy=0;" edge="1" parent="1" source="8KX8FrIU2miRSpjHxw3c-280" target="21">
          <mxGeometry relative="1" as="geometry">
            <Array as="points">
              <mxPoint x="523" y="-1134" />
              <mxPoint x="550" y="-1134" />
              <mxPoint x="550" y="-1604" />
              <mxPoint x="453" y="-1604" />
            </Array>
          </mxGeometry>
        </mxCell>
        <mxCell id="8KX8FrIU2miRSpjHxw3c-280" value="op" style="text;html=1;align=center;verticalAlign=middle;whiteSpace=wrap;rounded=0;" vertex="1" parent="1">
          <mxGeometry x="515" y="-1124" width="15" height="10" as="geometry" />
        </mxCell>
        <mxCell id="8KX8FrIU2miRSpjHxw3c-282" value="" style="edgeStyle=orthogonalEdgeStyle;rounded=0;orthogonalLoop=1;jettySize=auto;html=1;" edge="1" source="8KX8FrIU2miRSpjHxw3c-283" target="8KX8FrIU2miRSpjHxw3c-284" parent="1">
          <mxGeometry relative="1" as="geometry" />
        </mxCell>
        <mxCell id="8KX8FrIU2miRSpjHxw3c-283" value="ramWE" style="text;html=1;align=center;verticalAlign=middle;whiteSpace=wrap;rounded=0;" vertex="1" parent="1">
          <mxGeometry x="535" y="-1099" width="45" height="10" as="geometry" />
        </mxCell>
        <mxCell id="8KX8FrIU2miRSpjHxw3c-286" value="op" style="text;html=1;align=center;verticalAlign=middle;whiteSpace=wrap;rounded=0;" vertex="1" parent="1">
          <mxGeometry x="455" y="-1614" width="15" height="10" as="geometry" />
        </mxCell>
        <mxCell id="8KX8FrIU2miRSpjHxw3c-288" value="WE" style="text;html=1;align=center;verticalAlign=middle;whiteSpace=wrap;rounded=0;" vertex="1" parent="1">
          <mxGeometry x="190" y="-1124" width="20" height="10" as="geometry" />
        </mxCell>
        <mxCell id="8KX8FrIU2miRSpjHxw3c-290" style="edgeStyle=orthogonalEdgeStyle;rounded=0;orthogonalLoop=1;jettySize=auto;html=1;entryX=0.106;entryY=0.999;entryDx=0;entryDy=0;entryPerimeter=0;" edge="1" parent="1" source="8KX8FrIU2miRSpjHxw3c-288" target="9">
          <mxGeometry relative="1" as="geometry" />
        </mxCell>
        <mxCell id="8KX8FrIU2miRSpjHxw3c-292" value="WE" style="text;html=1;align=center;verticalAlign=middle;whiteSpace=wrap;rounded=0;" vertex="1" parent="1">
          <mxGeometry x="248.75" y="-1461.5" width="30" height="7.5" as="geometry" />
        </mxCell>
        <mxCell id="8KX8FrIU2miRSpjHxw3c-293" value="" style="edgeStyle=orthogonalEdgeStyle;rounded=0;orthogonalLoop=1;jettySize=auto;html=1;entryX=0.5;entryY=1;entryDx=0;entryDy=0;exitX=0.5;exitY=0;exitDx=0;exitDy=0;" edge="1" parent="1" source="8KX8FrIU2miRSpjHxw3c-288" target="8KX8FrIU2miRSpjHxw3c-292">
          <mxGeometry relative="1" as="geometry">
            <mxPoint x="264" y="-1434" as="sourcePoint" />
            <Array as="points">
              <mxPoint x="200" y="-1184" />
              <mxPoint x="180" y="-1184" />
              <mxPoint x="180" y="-1434" />
              <mxPoint x="264" y="-1434" />
            </Array>
          </mxGeometry>
        </mxCell>
        <mxCell id="8KX8FrIU2miRSpjHxw3c-180" value="" style="group" vertex="1" connectable="0" parent="1">
          <mxGeometry x="370" y="-1323.24" width="30.000000000000004" height="50" as="geometry" />
        </mxCell>
        <mxCell id="8KX8FrIU2miRSpjHxw3c-108" value="" style="shape=trapezoid;perimeter=trapezoidPerimeter;whiteSpace=wrap;html=1;fixedSize=1;rotation=-90;size=5;" vertex="1" parent="8KX8FrIU2miRSpjHxw3c-180">
          <mxGeometry x="-9.999999999999996" y="9.999999999999998" width="50" height="30" as="geometry" />
        </mxCell>
        <mxCell id="8KX8FrIU2miRSpjHxw3c-156" value="0" style="text;html=1;align=center;verticalAlign=middle;whiteSpace=wrap;rounded=0;" vertex="1" parent="8KX8FrIU2miRSpjHxw3c-180">
          <mxGeometry x="20" y="30" width="10" height="10" as="geometry" />
        </mxCell>
        <mxCell id="8KX8FrIU2miRSpjHxw3c-95" value="1" style="text;html=1;align=center;verticalAlign=middle;whiteSpace=wrap;rounded=0;" vertex="1" parent="8KX8FrIU2miRSpjHxw3c-180">
          <mxGeometry x="20" y="10" width="10" height="10" as="geometry" />
        </mxCell>
        <mxCell id="8KX8FrIU2miRSpjHxw3c-159" value="" style="shape=trapezoid;perimeter=trapezoidPerimeter;whiteSpace=wrap;html=1;fixedSize=1;rotation=-90;size=5;" vertex="1" parent="1">
          <mxGeometry x="230" y="-1314" width="50" height="30" as="geometry" />
        </mxCell>
        <mxCell id="8KX8FrIU2miRSpjHxw3c-160" value="1" style="text;html=1;align=center;verticalAlign=middle;whiteSpace=wrap;rounded=0;" vertex="1" parent="1">
          <mxGeometry x="260" y="-1314" width="10" height="10" as="geometry" />
        </mxCell>
        <mxCell id="8KX8FrIU2miRSpjHxw3c-161" value="0" style="text;html=1;align=center;verticalAlign=middle;whiteSpace=wrap;rounded=0;" vertex="1" parent="1">
          <mxGeometry x="260" y="-1294" width="10" height="10" as="geometry" />
        </mxCell>
      </root>
    </mxGraphModel>
  </diagram>
</mxfile>
